<svg id="Layer_5" enable-background="new 0 0 64 64" height="512" viewBox="0 0 64 64" width="512" xmlns="http://www.w3.org/2000/svg">
    <linearGradient id="SVGID_1_" gradientUnits="userSpaceOnUse" x1="32" x2="32" y1="63" y2=".698">
        <stop offset="0" stop-color="#9f2fff"/>
        <stop offset="1" stop-color="#0bb1d3"/>
    </linearGradient>
    <path d="m28 49v1c0 .552.449 1 1 1h2c1.654 0 3 1.346 3 3v3h-3v2h-2v-2c-1.654 0-3-1.346-3-3h2c0 .552.449 1 1 1h3v-1c0-.552-.449-1-1-1h-2c-1.654 0-3-1.346-3-3v-3h3v-2h2v2c1.654 0 3 1.346 3 3h-2c0-.552-.449-1-1-1zm28-29h7v1c0 3.86-3.14 7-7 7h-5v1 1 2h4c4.411 0 8 3.589 8 8v7c0 4.411-3.589 8-8 8h-2v3.805l-10.887-6.805 10.887-6.805v3.805h1c1.654 0 3-1.346 3-3v-5c0-1.654-1.346-3-3-3h-15.135c.083.715.135 1.435.135 2.161 0 1.579-.217 3.166-.623 4.727 1.632 1.92 2.623 4.401 2.623 7.112 0 6.065-4.935 11-11 11-3.438 0-6.51-1.588-8.529-4.066-.441.031-.886.066-1.309.066h-.323c-10.388 0-18.839-8.451-18.839-18.839 0-3.566 1.006-7.045 2.911-10.06l8.817-13.96-5.728-5.727v-.414c0-2.214 1.656-4.09 3.853-4.364l1.572-.197-.733-2.197 6.768-1.354 1.587 2.381 2.551-3.4 5.667 1.417-.96 3.12 1.841.23c2.198.274 3.854 2.15 3.854 4.364v.414l-5.728 5.728 8.817 13.96c.387.613.728 1.25 1.04 1.898h11.871v-2h-5c-3.86 0-7-3.14-7-7v-1h7c1.958 0 3.728.81 5 2.11v-5.517c-1.578-.899-6-3.759-6-7.594 0-4.343 5.709-9.226 6.36-9.768l.64-.533.64.534c.651.542 6.36 5.425 6.36 9.768 0 3.834-4.422 6.694-6 7.594v3.517c1.272-1.301 3.042-2.111 5-2.111zm-7.101 8c-.464-2.279-2.485-4-4.899-4h-4.899c.464 2.279 2.485 4 4.899 4zm-22.19-20.654-2.355 7.654h1.232l5.383-5.383c-.167-1.034-1.002-1.863-2.07-1.997zm-12.402-2.588 3.414 10.242h4.541l3.472-11.286-2.332-.583-3.45 4.6-2.412-3.619zm-5.276 4.859 5.383 5.383h1.198l-2.542-7.626-1.969.246c-1.068.134-1.903.963-2.07 1.997zm11.182 47.38c-.77-1.501-1.213-3.197-1.213-4.997 0-6.065 4.935-11 11-11 2.518 0 4.835.86 6.691 2.289.199-1.04.309-2.086.309-3.128 0-3.188-.9-6.297-2.602-8.991l-8.949-14.17h-10.898l-8.949 14.17c-1.702 2.694-2.602 5.804-2.602 8.991 0 9.285 7.554 16.839 16.838 16.839h.323c.017 0 .035-.003.052-.003zm18.787-4.997c0-4.963-4.038-9-9-9s-9 4.037-9 9 4.038 9 9 9 9-4.037 9-9zm16-18h-17.044c.227.656.42 1.323.574 2h15.47c2.757 0 5 2.243 5 5v5c0 2.757-2.243 5-5 5h-3v-2.195l-5.113 3.195 5.113 3.195v-2.195h4c3.309 0 6-2.691 6-6v-7c0-3.309-2.691-6-6-6zm-6-17.75v-8.25h2v8.247c1.752-1.173 4-3.156 4-5.247 0-2.553-3.177-5.998-5-7.669-1.823 1.671-5 5.116-5 7.669 0 2.099 2.248 4.08 4 5.25zm11.899 5.75h-4.899c-2.415 0-4.435 1.721-4.899 4h4.899c2.415 0 4.435-1.721 4.899-4zm-30.593 6.436-5.027-7.96-1.691 1.068 5.027 7.96zm.84 5.08 1.713-1.032-1.28-2.032-1.691 1.068zm-23.643 10.212-1.921.557c1.187 4.1 4.09 7.494 7.965 9.315l.851-1.811c-3.354-1.576-5.867-4.515-6.895-8.061zm-.503-3.567.001-.153-2-.018-.001.171c0 .658.044 1.321.13 1.971l1.982-.264c-.074-.562-.112-1.137-.112-1.707z"
          fill="url(#SVGID_1_)"/>
</svg>