<svg id="Layer_35" enable-background="new 0 0 64 64" height="512" viewBox="0 0 64 64" width="512" xmlns="http://www.w3.org/2000/svg">
    <linearGradient id="SVGID_1_" gradientUnits="userSpaceOnUse" x1="32" x2="32" y1="63" y2="1">
        <stop offset="0" stop-color="#9f2fff"/>
        <stop offset="1" stop-color="#0bb1d3"/>
    </linearGradient>
    <path d="m3 27v8c0 2.206 1.794 4 4 4h1v16c0 2.206 1.794 4 4 4 1.201 0 2.266-.542 3-1.382.734.84 1.799 1.382 3 1.382 2.206 0 4-1.794 4-4v-12.556c.591.344 1.268.556 2 .556h1v16c0 2.206 1.794 4 4 4 1.201 0 2.266-.542 3-1.382.734.84 1.799 1.382 3 1.382 2.206 0 4-1.794 4-4v-16h1c.732 0 1.409-.212 2-.556v12.556c0 2.206 1.794 4 4 4 1.201 0 2.266-.542 3-1.382.734.84 1.799 1.382 3 1.382 2.206 0 4-1.794 4-4v-16h1c2.206 0 4-1.794 4-4v-8c0-5.129-3.24-9.504-7.777-11.218 2.263-1.415 3.777-3.922 3.777-6.782 0-4.411-3.589-8-8-8s-8 3.589-8 8c0 2.855 1.508 5.358 3.765 6.774-2.562.969-4.749 2.804-6.15 5.223-.742-.493-1.546-.896-2.392-1.216 2.263-1.414 3.777-3.921 3.777-6.781 0-4.411-3.589-8-8-8s-8 3.589-8 8c0 2.86 1.514 5.367 3.777 6.782-.846.319-1.65.723-2.392 1.216-1.401-2.419-3.587-4.254-6.149-5.223 2.256-1.416 3.764-3.92 3.764-6.775 0-4.411-3.589-8-8-8s-8 3.589-8 8c0 2.86 1.514 5.367 3.777 6.782-4.537 1.714-7.777 6.089-7.777 11.218zm37 14h-1v-14h-2v32c0 1.103-.897 2-2 2s-2-.897-2-2v-21h-2v21c0 1.103-.897 2-2 2s-2-.897-2-2v-32h-2v14h-1c-1.103 0-2-.897-2-2v-4.946-3.054c0-4.672 3.226-8.595 7.564-9.687l-.586 7.956 3.022 4.534 3.022-4.534-.586-7.956c4.338 1.092 7.564 5.015 7.564 9.687v3 5c0 1.103-.897 2-2 2zm-8-20c.138 0 .273.015.41.021l.568 7.711-.978 1.465-.978-1.466.568-7.711c.137-.005.272-.02.41-.02zm14.844-3.738c.702-.156 1.419-.262 2.156-.262.745 0 1.469.088 2.169.244l-2.169 3.036zm.849 4.63-1.307 1.307-1.924-5.084c.13-.066.253-.145.386-.206zm2.613 0 2.842-3.979c.133.061.264.124.394.19l-1.93 5.096zm-7.306-12.892c0-3.309 2.691-6 6-6s6 2.691 6 6-2.691 6-6 6-6-2.691-6-6zm-.256 10.226 2.869 7.575 3.387-3.386 3.387 3.387 2.873-7.588c2.277 1.835 3.74 4.641 3.74 7.786v8c0 1.103-.897 2-2 2h-1v-13h-2v31c0 1.103-.897 2-2 2s-2-.897-2-2v-21h-2v21c0 1.103-.897 2-2 2s-2-.897-2-2v-16-5-3c0-3.438-1.461-6.535-3.786-8.724.643-1.193 1.502-2.224 2.53-3.05zm-16.744-6.226c0-3.309 2.691-6 6-6s6 2.691 6 6-2.691 6-6 6-6-2.691-6-6zm-11 4c.621 0 1.227.077 1.823.188-.314 1.061-1.024 1.812-1.823 1.812-.802 0-1.515-.757-1.827-1.825.593-.11 1.202-.175 1.827-.175zm-6-8c0-3.309 2.691-6 6-6s6 2.691 6 6-2.691 6-6 6-6-2.691-6-6zm2.26 8.733c.563 1.923 2.02 3.267 3.74 3.267 1.715 0 3.167-1.336 3.735-3.25 2.135.864 3.93 2.447 5.051 4.526-2.325 2.189-3.786 5.286-3.786 8.724v3.054 4.946 16c0 1.103-.897 2-2 2s-2-.897-2-2v-21h-2v21c0 1.103-.897 2-2 2s-2-.897-2-2v-32h-2v14h-1c-1.103 0-2-.897-2-2v-8c0-4.191 2.595-7.782 6.26-9.267z"
          fill="url(#SVGID_1_)"/>
</svg>