<svg id="Gradient" height="512" viewBox="0 0 512 512" width="512" xmlns="http://www.w3.org/2000/svg">
    <linearGradient id="linear-gradient" gradientUnits="userSpaceOnUse" x1="256" x2="256" y1="496" y2="16">
        <stop offset="0" stop-color="#12c2e9"/>
        <stop offset=".5" stop-color="#c471ed"/>
        <stop offset="1" stop-color="#f64f59"/>
    </linearGradient>
    <path d="m131.979 160.126q-2-.126-3.979-.126a63.993 63.993 0 0 0 -7.443 127.553l14.33 186.289a24.111 24.111 0 0 0 23.929 22.158h194.368a24.111 24.111 0 0 0 23.929-22.159l14.33-186.288a63.993 63.993 0 0 0 -7.443-127.553c-1.318 0-2.646.042-3.975.126a135.548 135.548 0 0 0 -86.311-74.816 39.981 39.981 0 0 0 -23.947-50.868 21.4 21.4 0 0 1 10.233-2.442 8 8 0 0 0 0-16c-13.762 0-25.229 6.721-29.83 16.429a39.982 39.982 0 0 0 -31.882 52.889 136.214 136.214 0 0 0 -86.309 74.808zm18.861 312.488-14.201-184.614h31.661l7.384 192h-16.87a8.036 8.036 0 0 1 -7.974-7.386zm176.846-184.614-7.386 192h-31.986l7.386-192zm-55.386 192h-32.6l-7.384-192h47.372zm-56-192 7.384 192h-31.984l-7.384-192zm144.86 184.613a8.036 8.036 0 0 1 -7.976 7.387h-16.87l7.386-192h31.663zm-113.16-423.237v6.624a8 8 0 0 0 16 0v-6.624a24 24 0 1 1 -16 0zm-68.982 74.569a120.045 120.045 0 0 1 48.011-24.409 39.9 39.9 0 0 0 57.95-.008 119.649 119.649 0 0 1 82.573 72.16 8 8 0 0 0 8.713 4.942 48 48 0 1 1 7.735 95.37h-256a48 48 0 1 1 7.735-95.37 8.011 8.011 0 0 0 8.713-4.942 120.624 120.624 0 0 1 34.57-47.743zm60.982 92.055a24 24 0 1 0 -24-24 24.028 24.028 0 0 0 24 24zm0-32a8 8 0 1 1 -8 8 8.009 8.009 0 0 1 8-8zm120 64a24 24 0 1 0 -24-24 24.028 24.028 0 0 0 24 24zm0-32a8 8 0 1 1 -8 8 8.009 8.009 0 0 1 8-8zm-232 8a24 24 0 1 0 24-24 24.028 24.028 0 0 0 -24 24zm24-8a8 8 0 1 1 -8 8 8.009 8.009 0 0 1 8-8zm122.343 29.657a8 8 0 0 1 0-11.314l16-16a8 8 0 0 1 11.314 11.314l-16 16a8 8 0 0 1 -11.314 0zm-88-88a8 8 0 0 1 0-11.314l16-16a8 8 0 0 1 11.314 11.314l-16 16a8 8 0 0 1 -11.314 0zm104-8a8 8 0 0 1 11.314-11.314l16 16a8 8 0 0 1 -11.314 11.314z"
          fill="url(#linear-gradient)"/>
</svg>