<svg id="_x33_0" enable-background="new 0 0 64 64" height="512" viewBox="0 0 64 64" width="512" xmlns="http://www.w3.org/2000/svg">
    <linearGradient id="SVGID_1_" gradientUnits="userSpaceOnUse" x1="32" x2="32" y1="63" y2=".834">
        <stop offset="0" stop-color="#9f2fff"/>
        <stop offset="1" stop-color="#0bb1d3"/>
    </linearGradient>
    <path d="m49 9v2h-2c-1.103 0-2 .897-2 2v2c0 1.103.897 2 2 2h2v2c0 1.103.897 2 2 2h2c1.103 0 2-.897 2-2v-2h2c1.103 0 2-.897 2-2v-2c0-1.103-.897-2-2-2h-2v-2c0-1.103-.897-2-2-2h-2c-1.103 0-2 .897-2 2zm8 3.999v2.001h-4v4h-2v-4h-4v-2h4v-4h2v4zm-3.772-11.429-1.228-.736-1.228.736c-2.648 1.59-5.682 2.43-8.772 2.43h-1v5h-2v-1c0-3.86-3.141-7-7-7s-7 3.14-7 7v1h-14c-1.103 0-2 .897-2 2v8.012c-2.269.065-4.372 1.1-5.794 2.88-1.423 1.778-2.206 4.012-2.206 6.318 0 2.711 1.056 5.26 2.973 7.177l5.027 5.027v20.586c0 1.103.897 2 2 2h42c1.103 0 2-.897 2-2v-35.16c4.877-2.56 8-7.589 8-13.281v-8.559h-1c-3.09 0-6.124-.84-8.772-2.43zm-4.228 37.05-2.115 2.38h-11.885v12h12v-9.12l2-2.25v15.37h-34v-10.586l1 1 12.027-12.027c.715-.715 1.31-1.519 1.775-2.387h9.382c.414 1.161 1.514 2 2.816 2 1.654 0 3-1.346 3-3s-1.346-3-3-3c-1.302 0-2.402.839-2.816 2h-8.58c.257-.903.396-1.848.396-2.819 0-2.277-.783-4.51-2.206-6.289-1.469-1.838-3.662-2.892-6.017-2.892-2.058 0-3.992.801-5.448 2.257l-1.329 1.329-1-1v-6.586h26.195c.751 4.667 3.639 8.653 7.805 10.84zm-6.957 10.837 2.957-3.327v4.87h-8v-8h8v.12l-3.043 3.423-2.25-2.25-1.414 1.414zm-1.043-17.457c0-.551.448-1 1-1s1 .449 1 1-.448 1-1 1-1-.449-1-1zm-14-24c0-2.757 2.243-5 5-5s5 2.243 5 5v1h-2v-1c0-1.654-1.346-3-3-3s-3 1.346-3 3v1h-2zm6 1h-2v-1c0-.551.448-1 1-1s1 .449 1 1zm8 2v1.56c0 .148.013.293.018.44h-28.018v6.993c-.626-.354-1.298-.615-2-.78v-8.213zm-38 17.181c0-1.825.628-3.614 1.769-5.04 1.086-1.361 2.71-2.141 4.454-2.141 1.523 0 2.956.593 4.034 1.671l2.743 2.743 2.743-2.743c1.078-1.078 2.511-1.671 4.034-1.671 1.743 0 3.367.78 4.454 2.141 1.141 1.425 1.769 3.215 1.769 5.069 0 .968-.177 1.907-.498 2.79h-9.12l-2.196 4.394-3.101-9.3-2.762 6.906h-2.323v2h3.677l1.238-3.094 2.899 8.7 3.804-7.606h6.816c-.249.34-.517.669-.821.973l-10.613 10.613-10.613-10.613c-1.539-1.539-2.387-3.586-2.387-5.792zm50 32.819h-42v-18.586l2 2v14.586h38v-32.287c.237.084.47.173.713.245l.287.086.287-.086c.243-.073.476-.162.713-.245zm8-48.44c0 5.699-3.604 10.642-9 12.393-5.396-1.751-9-6.694-9-12.393v-6.586c3.104-.163 6.128-1.084 8.802-2.688l.198-.12.198.119c2.673 1.605 5.698 2.526 8.802 2.689zm-30 38.44h2v2h-2zm-4 0h2v2h-2zm-4 0h2v2h-2zm10-26h6v2h-6zm0-4h6v2h-6zm0-4h6v2h-6z"
          fill="url(#SVGID_1_)"/>
</svg>