<?xml version="1.0"?>
<svg xmlns="http://www.w3.org/2000/svg" id="Layer_1" data-name="Layer 1" viewBox="0 0 512 512" width="512" height="512">
    <title>Budget report</title>
    <path d="M304.409,377.4a92.5,92.5,0,0,1,77.362-91.135,92.361,92.361,0,1,0,0,182.272A92.506,92.506,0,0,1,304.409,377.4Z" style="fill:#d4e1f4"/>
    <path d="M363.721,476.714A99.311,99.311,0,1,0,264.409,377.4,99.424,99.424,0,0,0,363.721,476.714Zm0-186.622A87.311,87.311,0,1,1,276.409,377.4,87.409,87.409,0,0,1,363.721,290.092Z"
          style="fill:#1ae5be"/>
    <path d="M363.914,428.48c-.065,0-.128-.01-.193-.01s-.128.008-.194.01A21.04,21.04,0,0,1,342.7,407.468a6,6,0,0,0-6-6,5.883,5.883,0,0,0-5.86,6A32.585,32.585,0,0,0,358,439.933v10.633a6,6,0,1,0,12,0V439.933a33.032,33.032,0,0,0-6.209-65.487,21.022,21.022,0,1,1,20.96-21.021,6,6,0,0,0,6,6,6.119,6.119,0,0,0,6.137-6A33.289,33.289,0,0,0,370,320.96v-9.4a6,6,0,0,0-12,0v9.4a32.585,32.585,0,0,0-27.161,32.465,33,33,0,0,0,32.952,33.021,21.017,21.017,0,0,1,.123,42.034Z"
          style="fill:#1ae5be"/>
    <path d="M58.926,149.7A33.9,33.9,0,0,0,86.3,135.784l41.147,28.651a33.93,33.93,0,1,0,66.348,4.178l43.14-36.384a33.9,33.9,0,0,0,56.184-35.583l39.363-36.078a33.9,33.9,0,1,0-3.673-15.325c0,.785.036,1.561.089,2.332L286.729,86.222a33.912,33.912,0,0,0-56.463,35.932L189.624,156.43a33.885,33.885,0,0,0-56.941-2.969l-41.078-28.6A33.922,33.922,0,1,0,58.926,149.7ZM362.731,23.317a21.926,21.926,0,1,1-21.925,21.926A21.951,21.951,0,0,1,362.731,23.317ZM261.463,86.906a21.926,21.926,0,1,1-21.926,21.926A21.951,21.951,0,0,1,261.463,86.906ZM160.194,151.35a21.926,21.926,0,1,1-21.925,21.926A21.951,21.951,0,0,1,160.194,151.35ZM58.926,93.844A21.926,21.926,0,1,1,37,115.771,21.951,21.951,0,0,1,58.926,93.844Z"
          style="fill:#0635c9"/>
    <path d="M393,263V120.141c0-3.313-2.227-6.141-5.54-6.141H338a6.125,6.125,0,0,0-6,6.141V263h12V126h37V263Z" style="fill:#0635c9"/>
    <path d="M292,289V183.479c0-3.314-2.494-6.479-5.808-6.479H236.734c-3.313,0-5.734,3.165-5.734,6.479v146A5.389,5.389,0,0,0,236.734,335H257V323H243V189h37V289Z"
          style="fill:#0635c9"/>
    <path d="M190,249a6,6,0,0,0-6-6H135a6,6,0,0,0-6,6v81a6,6,0,0,0,6,6h49a6,6,0,0,0,6-6Zm-49,6h38v68H141Z" style="fill:#0635c9"/>
    <path d="M89,191a6,6,0,0,0-6-6H34a6,6,0,0,0-6,6V329a6,6,0,0,0,6,6H83a6,6,0,0,0,6-6ZM78,323H40V197H78Z" style="fill:#0635c9"/>
    <path d="M363.721,500.683A123.336,123.336,0,1,0,240.44,377.4,123.42,123.42,0,0,0,363.721,500.683Zm-101.6-168.757a112.353,112.353,0,0,1,28.029-38.019,111,111,0,1,1-28.029,38.019Z"
          style="fill:#1ae5be"/>
</svg>
