<?xml version="1.0"?>
<svg xmlns:xlink="http://www.w3.org/1999/xlink" xmlns="http://www.w3.org/2000/svg" viewBox="0 0 512 512" width="512" height="512">
    <linearGradient id="a" gradientUnits="userSpaceOnUse" x1="183.5" x2="183.5" y1="15.117" y2="495.177">
        <stop offset="0" stop-color="#00efd1"/>
        <stop offset="1" stop-color="#00acea"/>
    </linearGradient>
    <linearGradient id="b" x1="255.965" x2="255.965" xlink:href="#a" y1="15.117" y2="495.177"/>
    <path d="m229 282h-91a10 10 0 0 0 -10 10v82a10 10 0 0 0 10 10h91a10 10 0 0 0 10-10v-82a10 10 0 0 0 -10-10zm-11 83h-70v-63h70z" fill="url(#a)"/>
    <path d="m462.773 356.926a9.986 9.986 0 0 0 -7.073-2.926 9.989 9.989 0 0 0 -7.071 2.921l-3.351 3.347-4.046-4.048a94.8 94.8 0 0 0 -53.232-152.309v-118.089a10.054 10.054 0 0 0 -10.236-9.822h-280.364c-5.519 0-10.4 4.3-10.4 9.822v163.178h-71.929a10.171 10.171 0 0 0 -10.071 10.129v119.362c0 28.209 23.024 51.509 51.237 51.509h284.917a46.822 46.822 0 0 0 46.167-40.436 94.408 94.408 0 0 0 39.771-19.113l4.04 4-3.455 3.434a9.986 9.986 0 0 0 -.006 14.126l36.909 36.956a24.9 24.9 0 0 0 35.06-.035 9.9 9.9 0 0 0 .679-.756 24.694 24.694 0 0 0 -.674-34.328zm-375.773 21.565a31 31 0 1 1 -62 0v-109.491h62zm254.154 31.509h-244.287a51.76 51.76 0 0 0 10.133-31.509v-282.491h261v105.735s-.33-.005-.436-.005a95.35 95.35 0 0 0 -19.527 2.015c0-.009-.037-.018-.037-.028v-83.171c0-5.523-4.518-9.546-10.041-9.546h-200.332a9.309 9.309 0 0 0 -9.627 9.546v83.171c0 5.523 4.1 10.283 9.627 10.283h183.688c-6.906 4-13.284 8-18.994 14h-164.694a10 10 0 0 0 0 20h148.547c-1.45 2-2.795 5-4.032 7h-144.515a10 10 0 0 0 0 20h137.388c-.609 3-1.1 5.041-1.491 7.728a10.167 10.167 0 0 0 -3.124-.728h-6.023a10 10 0 0 0 0 20h6.023a10.13 10.13 0 0 0 2.323 0c.153 2.605.413 5 .773 8h-9.119a10 10 0 0 0 0 20h11.261a10.173 10.173 0 0 0 2.816-.631 48.1 48.1 0 0 0 3.324 7.631h-17.405a10 10 0 0 0 0 20h28.283a10.209 10.209 0 0 0 1.84.014 94.986 94.986 0 0 0 71.9 34.525 26.892 26.892 0 0 1 -25.242 18.461zm-13.154-279v63h-180v-63zm48.311 239.965a79.843 79.843 0 0 1 -8.865.511 74.873 74.873 0 1 1 0-149.746 79.7 79.7 0 0 1 8.844.509 74.894 74.894 0 0 1 .021 148.726zm109.219 43.735c-.132.131-.26.264-.383.4a4.854 4.854 0 0 1 -6.452-.313l-29.81-29.853 6.807-6.808 29.838 29.88a4.7 4.7 0 0 1 0 6.692z"
          fill="url(#b)"/>
</svg>
