<svg height="512pt" viewBox="0 0 512 512" width="512pt" xmlns="http://www.w3.org/2000/svg">
    <path
        d="m512 256c0 64.25-23.667969 122.964844-62.765625 167.914062-9.5625 10.992188-20.054687 21.171876-31.335937 30.398438-.453126.363281-.902344.730469-1.351563 1.097656-7.144531 5.753906-14.605469 11.148438-22.359375 16.121094-3.992188 2.570312-8.066406 5.027344-12.214844 7.375-7.460937 4.234375-15.160156 8.101562-23.082031 11.570312-31.480469 13.84375-66.289063 21.523438-102.890625 21.523438s-71.417969-7.679688-102.902344-21.523438c-10.9375-4.808593-21.460937-10.347656-31.535156-16.585937-1.261719-.769531-2.507812-1.566406-3.75-2.359375-8.246094-5.296875-16.15625-11.042969-23.710938-17.230469-2.023437-1.652343-4.019531-3.332031-5.984374-5.058593-9.027344-7.835938-17.503907-16.308594-25.351563-25.335938-39.097656-44.941406-62.765625-103.65625-62.765625-167.90625 0-141.386719 114.613281-256 256-256s256 114.613281 256 256zm0 0"
        fill="#2a3347"/>
    <g fill="#3c507d">
        <path
            d="m433.261719 181.605469 29.527343-10.148438c8.867188-3.046875 8.867188-15.585937 0-18.636719l-29.527343-10.144531c-2.875-.988281-5.128907-3.246093-6.117188-6.117187l-10.148437-29.527344c-3.046875-8.867188-15.585938-8.867188-18.636719 0l-10.144531 29.527344c-.988282 2.871094-3.242188 5.128906-6.117188 6.117187l-29.527344 10.144531c-8.867187 3.046876-8.867187 15.589844 0 18.636719l29.527344 10.148438c2.875.988281 5.128906 3.242187 6.117188 6.117187l10.144531 29.523438c3.050781 8.871094 15.589844 8.871094 18.636719 0l10.148437-29.523438c.988281-2.871094 3.242188-5.128906 6.117188-6.117187zm0 0"/>
        <path
            d="m220.300781 408.683594 29.527344-10.144532c8.867187-3.046874 8.867187-15.589843 0-18.636718l-29.527344-10.148438c-2.871093-.988281-5.128906-3.242187-6.117187-6.117187l-10.144532-29.523438c-3.046874-8.871093-15.589843-8.871093-18.636718 0l-10.148438 29.523438c-.988281 2.875-3.242187 5.128906-6.113281 6.117187l-29.527344 10.148438c-8.871093 3.046875-8.871093 15.585937 0 18.636718l29.527344 10.144532c2.871094.988281 5.128906 3.246094 6.113281 6.117187l10.148438 29.527344c3.046875 8.867187 15.589844 8.867187 18.636718 0l10.144532-29.527344c.988281-2.871093 3.246094-5.128906 6.117187-6.117187zm0 0"/>
        <path
            d="m115.480469 206.621094 29.527343-10.148438c8.867188-3.046875 8.867188-15.589844 0-18.636718l-29.527343-10.148438c-2.871094-.984375-5.128907-3.242188-6.117188-6.113281l-10.144531-29.527344c-3.046875-8.867187-15.589844-8.867187-18.636719 0l-10.148437 29.527344c-.988282 2.871093-3.242188 5.128906-6.117188 6.113281l-29.527344 10.148438c-8.867187 3.046874-8.867187 15.589843 0 18.636718l29.527344 10.148438c2.875.988281 5.128906 3.242187 6.117188 6.113281l10.148437 29.527344c3.046875 8.867187 15.585938 8.867187 18.636719 0l10.144531-29.527344c.988281-2.871094 3.246094-5.125 6.117188-6.113281zm0 0"/>
    </g>
    <path d="m80.769531 321.460938h356.019531v68.421874h-356.019531zm0 0" fill="#bc5526"/>
    <path
        d="m128.3125 316.113281-2.445312 36.214844-8.054688 119.203125c-8.246094-5.296875-16.15625-11.042969-23.710938-17.230469-2.023437-1.652343-4.019531-3.332031-5.984374-5.058593-9.027344-7.835938-17.503907-16.308594-25.351563-25.335938l12.4375-72.226562 7.480469-43.425782 22.777344 3.917969zm0 0"
        fill="#d38051"/>
    <path
        d="m449.234375 423.914062c-9.5625 10.992188-20.054687 21.171876-31.335937 30.398438-.453126.363281-.902344.730469-1.351563 1.097656-7.144531 5.753906-14.605469 11.148438-22.359375 16.121094l-8.054688-119.203125-2.445312-36.214844 20.730469-3.574219 24.890625-4.285156 7.480468 43.425782zm0 0"
        fill="#d38051"/>
    <path d="m105.460938 312.171875-17.34375 137.070313c-9.027344-7.835938-17.503907-16.308594-25.351563-25.335938l12.4375-72.226562 7.480469-43.425782zm0 0" fill="#bc5526"/>
    <path d="m416.546875 455.410156c-7.144531 5.753906-14.605469 11.148438-22.359375 16.121094l-8.054688-119.203125-2.445312-36.214844 20.730469-3.574219zm0 0" fill="#bc5526"/>
    <path d="m82.679688 308.257812 45.632812 7.855469-2.445312 36.21875c-16.898438-.167969-33.78125-.378906-50.667969-.648437zm0 0" fill="#bc5526"/>
    <path
        d="m269.234375 75.554688c-5.589844-10.726563-20.886719-10.730469-26.480469 0-9.652344 18.523437-15.601562 40.53125-15.601562 55.457031 0 10.703125 3.058594 20.6875 8.347656 29.132812 9.460938 15.113281 31.53125 15.113281 40.992188 0 5.289062-8.445312 8.347656-18.429687 8.347656-29.132812-.003906-14.925781-5.949219-36.933594-15.605469-55.457031zm0 0"
        fill="#ffe96e"/>
    <path
        d="m263.492188 117.160156c-3.167969-6.074218-11.828126-6.074218-14.996094 0-5.464844 10.488282-8.835938 22.953125-8.835938 31.40625 0 6.058594 1.734375 11.710938 4.726563 16.496094 5.359375 8.554688 17.855469 8.554688 23.214843 0 2.992188-4.785156 4.726563-10.4375 4.726563-16.496094 0-8.453125-3.371094-20.917968-8.835937-31.40625zm0 0"
        fill="#f74570"/>
    <path d="m436.789062 351.683594c-16.882812.269531-33.769531.480468-50.65625.648437l-2.445312-36.21875 45.621094-7.855469zm0 0" fill="#bc5526"/>
    <path
        d="m484.074219 315.527344c-.210938.511718-.410157 1.015625-.621094 1.527344-3.3125 7.960937-11.714844 13.355468-21.25 13.519531-137.46875 2.425781-274.9375 2.425781-412.40625 0-9.535156-.164063-17.949219-5.558594-21.261719-13.519531-6.8125-16.351563-6.8125-32.707032 0-49.058594 2.902344-6.96875 9.703125-11.964844 17.75-13.21875 1.152344-.175782 2.328125-.28125 3.511719-.300782 137.46875-2.425781 274.9375-2.425781 412.40625 0 9.535156.167969 17.9375 5.558594 21.25 13.519532 6.601563 15.839844 6.800781 31.691406.621094 47.53125zm0 0"
        fill="#bc5526"/>
    <path
        d="m294.222656 233.753906c-.367187 4.097656-3.625 7.355469-7.734375 7.734375-6.8125.605469-13.625 1-20.4375 1.210938-13.519531.394531-27.03125-.011719-40.550781-1.210938-4.105469-.378906-7.367188-3.636719-7.734375-7.734375-1.816406-20.332031-1.816406-40.667968 0-61 .367187-4.105468 3.628906-7.367187 7.734375-7.734375 5.253906-.46875 10.511719-.8125 15.765625-1.042969 15.070313-.648437 30.148437-.304687 45.222656 1.042969 4.109375.367188 7.367188 3.628907 7.734375 7.734375 1.816406 20.332032 1.816406 40.667969 0 61zm0 0"
        fill="#30a4c7"/>
    <path
        d="m294.222656 233.753906c-.367187 4.097656-3.625 7.355469-7.734375 7.734375-6.8125.605469-13.625 1-20.4375 1.210938-7.082031-.199219-14.15625-.617188-21.242187-1.253907-4.222656-.375-7.566406-3.730468-7.941406-7.953124-1.871094-20.886719-1.871094-41.785157 0-62.683594.261718-2.933594 1.964843-5.453125 4.398437-6.832032 15.070313-.648437 30.148437-.304687 45.222656 1.042969 4.109375.367188 7.367188 3.628907 7.734375 7.734375 1.816406 20.332032 1.816406 40.667969 0 61zm0 0"
        fill="#80ceed"/>
    <path d="m150.125 134.328125c-13.660156 9.835937-21.628906 76.246094-13.660156 109.863281h-15.3125c7.96875-33.617187 0-100.027344-13.664063-109.863281" fill="#d1e6f2"/>
    <path d="m123.402344 134.324219c3.4375 9.777343 5.460937 76.050781 3.5 109.871093h-5.75c7.964844-33.621093 0-100.03125-13.664063-109.871093zm0 0" fill="#93bfd9"/>
    <path d="m187.839844 53.289062c0 50.269532-26.425782 91.011719-59.027344 91.011719s-59.039062-40.742187-59.039062-91.011719c0-19.90625 4.140624-38.3125 11.175781-53.28515575h95.71875c7.03125 14.97265575 11.171875 33.37890575 11.171875 53.28515575zm0 0" fill="#d1e6f2"/>
    <path d="m175.261719 53.289062c0 42.519532-21.277344 78.429688-46.453125 78.429688-25.179688 0-46.457032-35.910156-46.457032-78.429688 0-4.316406.214844-8.59375.628907-12.769531h91.652343c.417969 4.175781.628907 8.453125.628907 12.769531zm0 0" fill="#f74570"/>
    <path d="m128.8125 144.300781c-32.601562 0-59.039062-40.742187-59.039062-91.011719 0-19.90625 4.140624-38.316406 11.171874-53.289062h23.933594c-3.519531 14.972656-5.585937 33.382812-5.585937 53.289062 0 50.269532 13.214843 91.011719 29.519531 91.011719zm0 0" fill="#93bfd9"/>
    <path d="m99.589844 40.519531h-16.609375c-.414063 4.175781-.628907 8.453125-.628907 12.769531 0 31.785157 11.890626 59.871094 28.410157 72.023438-6.96875-16.644531-11.460938-42.71875-11.460938-72.023438 0-4.339843.101563-8.605468.289063-12.769531zm0 0" fill="#dd2339"/>
    <path
        d="m170.21875 248.703125c0 7.472656-6.066406 13.523437-13.539062 13.523437h-55.742188c-3.738281 0-7.125-1.507812-9.5625-3.960937-2.457031-2.441406-3.964844-5.828125-3.964844-9.5625 0-7.476563 6.050782-13.527344 13.527344-13.527344h55.742188c3.734374 0 7.121093 1.507813 9.574218 3.960938 2.441406 2.441406 3.964844 5.828125 3.964844 9.566406zm0 0"
        fill="#93bfd9"/>
    <path
        d="m170.21875 248.703125c0 7.472656-6.066406 13.523437-13.539062 13.523437h-33.207032c-3.722656 0-7.109375-1.507812-9.5625-3.960937-2.441406-2.441406-3.964844-5.828125-3.964844-9.5625 0-7.476563 6.066407-13.527344 13.527344-13.527344h33.207032c3.734374 0 7.121093 1.507813 9.574218 3.960938 2.441406 2.441406 3.964844 5.828125 3.964844 9.566406zm0 0"
        fill="#d1e6f2"/>
    <path d="m310.125 227.503906-10.449219 32.675782h-87.351562l-10.460938-32.675782zm0 0" fill="#93bfd9"/>
    <path d="m310.125 227.503906-10.449219 32.675782h-60.800781l-10.449219-32.675782zm0 0" fill="#d1e6f2"/>
    <path d="m402.238281 134.328125c-13.660156 9.835937-21.632812 76.246094-13.660156 109.863281h-15.3125c7.96875-33.617187 0-100.027344-13.664063-109.863281" fill="#d1e6f2"/>
    <path d="m375.515625 134.324219c3.433594 9.777343 5.460937 76.050781 3.5 109.871093h-5.75c7.964844-33.621093 0-100.03125-13.667969-109.871093zm0 0" fill="#93bfd9"/>
    <path d="m439.953125 53.289062c0 50.269532-26.425781 91.011719-59.027344 91.011719-32.601562 0-59.039062-40.742187-59.039062-91.011719 0-19.90625 4.140625-38.3125 11.175781-53.28515575h95.714844c7.035156 14.97265575 11.175781 33.37890575 11.175781 53.28515575zm0 0" fill="#d1e6f2"/>
    <path d="m427.375 53.289062c0 42.519532-21.277344 78.429688-46.457031 78.429688-25.175781 0-46.453125-35.910156-46.453125-78.429688 0-4.316406.210937-8.59375.628906-12.769531h91.652344c.414062 4.175781.628906 8.453125.628906 12.769531zm0 0" fill="#f74570"/>
    <path d="m380.925781 144.300781c-32.601562 0-59.039062-40.742187-59.039062-91.011719 0-19.90625 4.140625-38.316406 11.171875-53.289062h23.933594c-3.523438 14.972656-5.585938 33.382812-5.585938 53.289062 0 50.269532 13.210938 91.011719 29.519531 91.011719zm0 0" fill="#93bfd9"/>
    <path d="m351.703125 40.519531h-16.609375c-.417969 4.175781-.628906 8.453125-.628906 12.769531 0 31.785157 11.890625 59.871094 28.410156 72.023438-6.96875-16.644531-11.460938-42.71875-11.460938-72.023438 0-4.339843.097657-8.605468.289063-12.769531zm0 0" fill="#dd2339"/>
    <path
        d="m422.328125 248.703125c0 7.472656-6.0625 13.523437-13.539063 13.523437h-55.742187c-3.734375 0-7.121094-1.507812-9.5625-3.960937-2.453125-2.441406-3.960937-5.828125-3.960937-9.5625 0-7.476563 6.050781-13.527344 13.523437-13.527344h55.742187c3.738282 0 7.125 1.507813 9.578126 3.960938 2.441406 2.441406 3.960937 5.828125 3.960937 9.566406zm0 0"
        fill="#93bfd9"/>
    <path
        d="m422.328125 248.703125c0 7.472656-6.0625 13.523437-13.539063 13.523437h-33.203124c-3.726563 0-7.109376-1.507812-9.5625-3.960937-2.441407-2.441406-3.964844-5.828125-3.964844-9.5625 0-7.476563 6.0625-13.527344 13.527344-13.527344h33.203124c3.738282 0 7.125 1.507813 9.578126 3.960938 2.441406 2.441406 3.960937 5.828125 3.960937 9.566406zm0 0"
        fill="#d1e6f2"/>
    <path
        d="m484.074219 315.527344c-1.136719.179687-2.3125.285156-3.5.304687-137.46875 2.425781-274.945313 2.425781-412.414063 0-9.539062-.167969-17.9375-5.558593-21.25-13.511719-6.601562-15.839843-6.800781-31.691406-.625-47.542968 1.152344-.175782 2.328125-.28125 3.515625-.300782 137.46875-2.425781 274.933594-2.425781 412.402344 0 9.539063.167969 17.9375 5.558594 21.25 13.519532 6.601563 15.839844 6.800781 31.691406.621094 47.53125zm0 0"
        fill="#d38051"/>
</svg>
