<?xml version="1.0" encoding="iso-8859-1"?>
<!-- Generator: Adobe Illustrator 19.0.0, SVG Export Plug-In . SVG Version: 6.00 Build 0)  -->
<svg version="1.1" id="Capa_1" xmlns="http://www.w3.org/2000/svg" x="0px" y="0px"
     viewBox="0 0 512 512" style="enable-background:new 0 0 512 512;" xml:space="preserve">
<circle style="fill:#FFC247;" cx="256" cy="256" r="256"/>
    <path style="fill:#FFA426;" d="M512,256c0-5.804-0.212-11.558-0.592-17.265L354.666,81.993L60.353,209.685l127.786,127.786
	l-89.891,58.271L210.467,507.96C225.244,510.613,240.46,512,256,512C397.385,512,512,397.385,512,256z"/>
    <rect x="98.25" y="184.57" style="fill:#EBF6FC;" width="295.1" height="211.17"/>
    <rect x="255.57" y="184.57" style="fill:#E1F1FA;" width="137.78" height="211.17"/>
    <polygon style="fill:#F24500;" points="136.932,81.993 60.353,209.685 431.246,209.685 354.666,81.993 "/>
    <polygon style="fill:#D13400;" points="354.666,81.993 255.571,81.993 255.571,209.685 431.246,209.685 "/>
    <rect x="191.15" y="254.19" style="fill:#D6CEC1;" width="109.29" height="141.55"/>
    <rect x="255.57" y="254.19" style="fill:#CDC3B4;" width="44.874" height="141.55"/>
    <circle style="fill:#A0968C;" cx="216.89" cy="322.76" r="12.796"/>
    <circle style="fill:#F7D139;" cx="353.03" cy="335.55" r="81.966"/>
    <path style="fill:#E8C917;" d="M353.034,253.587c-0.147,0-0.292,0.01-0.439,0.011v163.909c0.147,0.001,0.292,0.011,0.439,0.011
	c45.268,0,81.966-36.698,81.966-81.966S398.303,253.587,353.034,253.587z"/>
    <circle style="fill:#FFF04A;" cx="353.03" cy="335.55" r="60.61"/>
    <path style="fill:#FFE67D;" d="M353.034,274.947c-0.147,0-0.292,0.01-0.439,0.011v121.19c0.147,0.001,0.292,0.011,0.439,0.011
	c33.472,0,60.606-27.134,60.606-60.606S386.506,274.947,353.034,274.947z"/>
    <path style="fill:#E89F00;" d="M383.145,351.124c0-14.331-11.659-25.99-25.99-25.99h-8.24c-2.841,0-5.152-2.311-5.152-5.152
	c0-2.84,2.311-5.152,5.152-5.152h30.758v-20.839h-16.218v-9.03h-20.839v9.806c-11.297,2.823-19.691,13.055-19.691,25.214
	c0,14.331,11.659,25.991,25.99,25.991h8.24c2.841,0,5.152,2.311,5.152,5.152s-2.311,5.152-5.152,5.152h-30.758v20.839h16.218v9.03
	h20.839v-9.806C374.75,373.515,383.145,363.283,383.145,351.124z"/>
    <g>
	<path style="fill:#E0911B;" d="M357.155,325.133h-4.559v20.839h4.559c2.841,0,5.152,2.311,5.152,5.152s-2.311,5.152-5.152,5.152
		h-4.559v29.869h10.858v-9.806c11.297-2.823,19.691-13.055,19.691-25.215C383.145,336.792,371.486,325.133,357.155,325.133z"/>
        <polygon style="fill:#E0911B;" points="379.672,314.83 379.672,293.991 363.454,293.991 363.454,284.961 352.595,284.961
		352.595,314.83 	"/>
</g>
    <g>
</g>
    <g>
</g>
    <g>
</g>
    <g>
</g>
    <g>
</g>
    <g>
</g>
    <g>
</g>
    <g>
</g>
    <g>
</g>
    <g>
</g>
    <g>
</g>
    <g>
</g>
    <g>
</g>
    <g>
</g>
    <g>
</g>
</svg>
