<svg id="icons" enable-background="new 0 0 64 64" height="512" viewBox="0 0 64 64" width="512" xmlns="http://www.w3.org/2000/svg">
    <path d="m.999 23.514c-.553 0-1-.447-1-1v-12.002c0-.553.447-1 1-1s1 .447 1 1v12.002c0 .552-.447 1-1 1z" fill="#ccd1d9"/>
    <path d="m3.999 20.51c-.553 0-1-.447-1-1v-8.998c0-.553.447-1 1-1s1 .447 1 1v8.998c0 .553-.447 1-1 1z" fill="#ccd1d9"/>
    <path d="m6.999 20.51c-.553 0-1-.447-1-1v-8.998c0-.553.447-1 1-1s1 .447 1 1v8.998c0 .553-.447 1-1 1z" fill="#ccd1d9"/>
    <path d="m9.999 23.514c-.553 0-1-.447-1-1v-12.002c0-.553.447-1 1-1s1 .447 1 1v12.002c0 .552-.447 1-1 1z" fill="#ccd1d9"/>
    <path d="m58.999 33.528v18.5c0 .83-.67 1.5-1.5 1.5s-1.5-.67-1.5-1.5v-18.5z" fill="#ccd1d9"/>
    <path d="m63 16.509v17.02h-3-3v-23.01-.01c3.31 0 6 2.679 6 6z" fill="#e6e9ed"/>
    <path d="m32.5 10.499c11.87 0 21.5 9.63 21.5 21.5 0 11.88-9.63 21.5-21.5 21.5-11.88 0-21.5-9.62-21.5-21.5 0-11.87 9.62-21.5 21.5-21.5zm14.5 21.5c0-8-6.5-14.5-14.5-14.5-8.01 0-14.5 6.5-14.5 14.5 0 8.01 6.49 14.5 14.5 14.5 8 0 14.5-6.49 14.5-14.5z" fill="#e6e9ed"/>
    <path d="m32.5 17.499c8 0 14.5 6.5 14.5 14.5 0 8.01-6.5 14.5-14.5 14.5-8.01 0-14.5-6.49-14.5-14.5 0-8 6.49-14.5 14.5-14.5z" fill="#ccd1d9"/>
    <path d="m7 25.519v26.51c0 .83-.67 1.5-1.5 1.5s-1.5-.67-1.5-1.5v-26.51z" fill="#ccd1d9"/>
    <g fill="#e6e9ed">
        <path d="m57.001 34.521c-.553 0-1-.447-1-1v-23.003c0-.553.447-1 1-1s1 .447 1 1v23.004c0 .552-.447.999-1 .999z"/>
        <path d="m63.001 34.521h-6c-.553 0-1-.447-1-1s.447-1 1-1h6c.553 0 1 .447 1 1s-.447 1-1 1z"/>
        <path d="m63.001 17.504c-.553 0-1-.447-1-1 0-2.758-2.244-5.002-5.003-5.002-.553 0-1-.447-1-1s.447-1 1-1c3.861 0 7.003 3.141 7.003 7.002 0 .553-.447 1-1 1z"/>
        <path d="m63.001 34.521c-.553 0-1-.447-1-1v-17.017c0-.553.447-1 1-1s1 .447 1 1v17.018c0 .552-.447.999-1 .999z"/>
        <path d="m32.499 54.5c-12.406 0-22.5-10.094-22.5-22.5s10.094-22.5 22.5-22.5 22.5 10.094 22.5 22.5-10.094 22.5-22.5 22.5zm0-43c-11.304 0-20.5 9.196-20.5 20.5s9.196 20.5 20.5 20.5 20.5-9.196 20.5-20.5-9.196-20.5-20.5-20.5z"/>
        <path d="m10.999 19.512c0-.553-.447-1-1-1h-9c-.553 0-1 .447-1 1v3.002c0 2.206 1.794 4 4 4h3c2.206 0 4-1.794 4-4 0-.553 0-2.45 0-3.002z"/>
    </g>
</svg>
