<svg id="icons" enable-background="new 0 0 64 64" height="512" viewBox="0 0 64 64" width="512" xmlns="http://www.w3.org/2000/svg">
    <path d="m50.005 39.001c0 1.11-.899 2-2 2-1.1 0-2-.89-2-2 0-1.1.9-2 2-2s2 .9 2 2z" fill="#ccd1d9"/>
    <path d="m38.016 21v6c0 5.771-3.25 10.771-8.021 13.271v.011c-2.08 1.1-4.46 1.72-6.979 1.72-2.54 0-4.921-.63-7.011-1.74-4.76-2.51-7.989-7.5-7.989-13.261v-6l4-4s5 3 11 3 11-3 11-3z" fill="#eac6bb"/>
    <path d="m34.016 17-.004.002v9.998c0 5.771-3.25 10.771-8.021 13.271v.011c-1.52.804-3.2 1.348-4.978 1.584.654.087 1.322.136 2.002.136 2.52 0 4.899-.62 6.979-1.72v-.011c4.771-2.5 8.021-7.5 8.021-13.271v-6z" fill="#d3b1a9"/>
    <path d="m38.016 15v6l-4-4s-5 3-11 3-11-3-11-3l-4 4v-5c0-7.18 5.81-13 13-13h10v5c3.869 0 7 3.13 7 7z" fill="#965353"/>
    <path d="m31.016 12c1.654 0 3 1.346 3 3v2l4 4v-6c0-3.87-3.131-7-7-7v-5h-4v5c0 2.209 1.791 4 4 4z" fill="#844747"/>
    <path d="m9.995 45v16h-9v-8c0-4.42 3.58-8 8-8z" fill="#e6e9ed"/>
    <path d="m33.005 58h1v-3.99c0-3.43 1.24-6.58 3.28-9.01h-7.29l-7 13-7-13h-6v16h13 13.01c-1.66 0-3-1.34-3-3z" fill="#656d78"/>
    <path d="m29.995 40.281v4.719l-5 2.001-2-1-2 1-5-2.001v-4.729l.01-.01c2.09 1.11 4.471 1.74 7.011 1.74 2.519 0 4.899-.62 6.979-1.72z" fill="#f5f7fa"/>
    <path d="m24.995 47.001 5-2.001-7 13-7-13 5 2.001 2-1z" fill="#e6e9ed"/>
    <path d="m48.005 40.01c7.73 0 14 6.271 14 14v3.99h-28v-3.99c0-3.43 1.24-6.58 3.28-9.01 2.57-3.05 6.42-4.99 10.72-4.99z" fill="#e6e9ed"/>
    <path d="m48.005 40.01c-.506 0-1.004.032-1.495.084 7.021.753 12.492 6.696 12.492 13.916v3.99h3.003v-3.99c0-7.73-6.27-14-14-14z" fill="#ccd1d9"/>
    <path d="m63.005 58c0 1.66-1.34 3-3 3h-24c-1.66 0-3-1.34-3-3h1 28z" fill="#f5f7fa"/>
    <path d="m23.026 51.001c-.553 0-1.005-.447-1.005-1s.442-1 .994-1h.011c.552 0 1 .447 1 1s-.448 1-1 1z" fill="#ccd1d9"/>
    <path d="m21.996 56.145v4.855h.999 1.001v-4.859l-1.001 1.859z" fill="#545c66"/>
</svg>
